<svg width="100" height="41" viewBox="0 0 100 41" fill="none" xmlns="http://www.w3.org/2000/svg">
<path d="M16.1802 37.865C15.1522 38.6561 14.1637 39.2495 13.2149 39.645C12.266 40.0406 11.1984 40.2383 10.0123 40.2383C8.94481 40.2383 7.99592 40.0406 7.16563 39.6055C6.33535 39.1703 5.70275 38.6166 5.26784 37.865C4.83293 37.153 4.5957 36.3224 4.5957 35.4917C4.5957 34.3446 4.95154 33.3557 5.70275 32.525C6.41442 31.6944 7.44239 31.1802 8.70759 30.9033C8.98435 30.8242 9.65649 30.7055 10.6845 30.4682C11.752 30.2704 12.6613 30.0726 13.4125 29.8748C14.1637 29.6771 14.994 29.4793 15.8639 29.2024C15.8243 28.0948 15.5871 27.2642 15.1917 26.75C14.7963 26.2357 13.9661 25.9588 12.7404 25.9588C11.6729 25.9588 10.8821 26.1171 10.3286 26.394C9.7751 26.7104 9.34019 27.1455 8.94481 27.7388C8.54944 28.3322 8.27268 28.7277 8.11453 28.9255C7.95638 29.1233 7.60054 29.2024 7.08656 29.2024C6.61211 29.2024 6.21674 29.0442 5.8609 28.7277C5.50506 28.4113 5.34691 28.0157 5.34691 27.5806C5.34691 26.8291 5.62368 26.1171 6.13766 25.4051C6.65165 24.6931 7.48193 24.1393 8.58898 23.6646C9.69602 23.2295 11.0798 22.9922 12.7404 22.9922C14.5987 22.9922 16.0615 23.2295 17.129 23.6646C18.1966 24.0997 18.9478 24.8117 19.3827 25.7611C19.8176 26.7104 20.0548 27.9762 20.0548 29.5188C20.0548 30.5077 20.0548 31.3384 20.0548 32.0504C20.0548 32.7228 20.0548 33.5139 20.0153 34.3446C20.0153 35.1357 20.1339 35.9664 20.4107 36.8366C20.6874 37.7068 20.806 38.2606 20.806 38.4979C20.806 38.933 20.6083 39.3286 20.213 39.6846C19.8176 40.0406 19.3431 40.1988 18.8292 40.1988C18.3942 40.1988 17.9593 40.001 17.564 39.6055C17.1291 39.2495 16.6546 38.6561 16.1802 37.865ZM15.9034 31.7735C15.2708 32.0108 14.401 32.2482 13.2149 32.4855C12.0287 32.7228 11.238 32.9206 10.7635 33.0393C10.3286 33.1579 9.89371 33.3953 9.4588 33.7513C9.06343 34.1073 8.8262 34.5819 8.8262 35.2148C8.8262 35.8477 9.06343 36.4015 9.53787 36.8366C10.0123 37.2717 10.6449 37.509 11.4357 37.509C12.266 37.509 13.0567 37.3112 13.7288 36.9552C14.4405 36.5992 14.9545 36.1246 15.2708 35.5312C15.6662 34.8984 15.8243 33.8304 15.8243 32.3668V31.7735H15.9034Z" fill="white"/>
<path d="M33.0632 37.864V37.3103C32.5492 37.9431 32.0352 38.4969 31.4817 38.932C30.9281 39.3671 30.3351 39.6836 29.6629 39.8814C28.9908 40.0791 28.2396 40.1978 27.4093 40.1978C26.3813 40.1978 25.472 40 24.6812 39.5649C23.8905 39.1298 23.2579 38.576 22.823 37.8245C22.309 36.9147 22.0322 35.6489 22.0322 33.948V25.6414C22.0322 24.8108 22.2299 24.1779 22.5858 23.7428C22.9811 23.3076 23.4556 23.1099 24.0882 23.1099C24.7208 23.1099 25.2348 23.3076 25.6301 23.7428C26.0255 24.1779 26.2232 24.8108 26.2232 25.6414V32.4054C26.2232 33.3943 26.3023 34.1854 26.4604 34.8578C26.6186 35.5303 26.9349 36.0445 27.3302 36.4005C27.7651 36.7565 28.3187 36.9543 29.0699 36.9543C29.7816 36.9543 30.4537 36.7565 31.0863 36.3214C31.7189 35.8863 32.1538 35.3325 32.4701 34.66C32.7073 34.0667 32.8259 32.7614 32.8259 30.7441V25.6019C32.8259 24.7712 33.0236 24.1383 33.419 23.7032C33.8144 23.2681 34.3284 23.0703 34.9609 23.0703C35.5935 23.0703 36.1075 23.2681 36.4634 23.7032C36.8587 24.1383 37.0169 24.7316 37.0169 25.6019V37.8245C37.0169 38.6156 36.8192 39.2485 36.4634 39.644C36.1075 40.0396 35.6331 40.2374 35.04 40.2374C34.447 40.2374 33.9725 40.0396 33.6167 39.6045C33.2608 39.2089 33.0632 38.6156 33.0632 37.864Z" fill="white"/>
<path d="M40.4954 23.4665H40.9699V20.935C40.9699 20.2625 40.9699 19.7088 41.0094 19.3528C41.0489 18.9572 41.128 18.6408 41.3257 18.3639C41.4839 18.087 41.7211 17.8497 42.0374 17.6519C42.3537 17.4541 42.7095 17.375 43.0654 17.375C43.6189 17.375 44.0933 17.5728 44.5282 17.9683C44.805 18.2452 45.0027 18.5617 45.0818 18.9572C45.1608 19.3528 45.2004 19.9065 45.2004 20.6185V23.5061H46.7423C47.3354 23.5061 47.8098 23.6643 48.1261 23.9412C48.4424 24.2181 48.6006 24.5741 48.6006 25.0487C48.6006 25.6025 48.3634 25.9981 47.9285 26.2354C47.4935 26.4727 46.8214 26.5914 45.9911 26.5914H45.2004V34.3443C45.2004 35.0167 45.2399 35.4914 45.2794 35.8474C45.319 36.2034 45.4376 36.4803 45.6353 36.7176C45.833 36.9549 46.1493 37.034 46.6237 37.034C46.8609 37.034 47.2168 36.9945 47.6122 36.9154C48.0471 36.8363 48.3634 36.7967 48.6006 36.7967C48.9564 36.7967 49.2332 36.9154 49.5099 37.1923C49.7867 37.4691 49.9053 37.7856 49.9053 38.2207C49.9053 38.8931 49.5495 39.4074 48.7983 39.7634C48.0471 40.1194 46.9796 40.3171 45.5957 40.3171C44.291 40.3171 43.263 40.0798 42.5909 39.6447C41.9188 39.2096 41.4839 38.5767 41.2466 37.8251C41.0489 37.034 40.9303 36.0056 40.9303 34.7003V26.5123H40.3768C39.7837 26.5123 39.3093 26.3541 38.993 26.0772C38.6767 25.8003 38.5186 25.4047 38.5186 24.9696C38.5186 24.5345 38.6767 24.1785 39.0325 23.8621C39.3884 23.6248 39.8628 23.4665 40.4954 23.4665Z" fill="white"/>
<path d="M67.2619 31.6939C67.2619 32.9597 67.0642 34.1068 66.6688 35.1748C66.2734 36.2428 65.7199 37.1525 64.9687 37.9041C64.2175 38.6556 63.3477 39.249 62.3197 39.6445C61.2917 40.0401 60.1452 40.2378 58.8404 40.2378C57.5752 40.2378 56.4286 40.0401 55.4007 39.605C54.3727 39.2094 53.5029 38.6161 52.7517 37.825C52.0005 37.0339 51.4469 36.1636 51.0516 35.0956C50.6562 34.0672 50.4585 32.8805 50.4585 31.6148C50.4585 30.349 50.6562 29.1623 51.0516 28.0943C51.4469 27.0263 52.0005 26.1166 52.7517 25.365C53.4633 24.6135 54.3727 24.0201 55.4007 23.6246C56.4286 23.229 57.5752 23.0312 58.8404 23.0312C60.1056 23.0312 61.2917 23.229 62.3197 23.6641C63.3477 24.0597 64.257 24.653 65.0082 25.4441C65.7595 26.1957 66.313 27.1055 66.7084 28.1735C67.0642 29.2414 67.2619 30.4281 67.2619 31.6939ZM63.0314 31.6939C63.0314 29.993 62.636 28.6481 61.8848 27.6592C61.1336 26.7099 60.1056 26.2352 58.8404 26.2352C58.0101 26.2352 57.2985 26.433 56.6659 26.8681C56.0333 27.3032 55.5588 27.9361 55.203 28.7668C54.8471 29.5974 54.689 30.5863 54.689 31.6939C54.689 32.8014 54.8471 33.7508 55.203 34.5814C55.5193 35.4121 56.0333 36.045 56.6263 36.4801C57.2589 36.9152 57.9706 37.1525 58.8404 37.1525C60.1056 37.1525 61.1336 36.6779 61.8848 35.689C62.636 34.7001 63.0314 33.3948 63.0314 31.6939Z" fill="white"/>
<path d="M93.7922 30.8241C93.7922 32.525 93.3573 34.0677 92.4875 35.4126C91.6177 36.7574 90.3129 37.8254 88.6524 38.6166C86.9523 39.3681 84.9754 39.7637 82.6427 39.7637C79.8751 39.7637 77.5819 39.2494 75.7632 38.1814C74.498 37.4299 73.4305 36.4014 72.6397 35.1752C71.849 33.9095 71.4536 32.6832 71.4536 31.4966C71.4536 30.8241 71.6908 30.2308 72.1653 29.7166C72.6397 29.2419 73.2723 28.965 73.984 28.965C74.5771 28.965 75.091 29.1628 75.526 29.5584C75.9609 29.9539 76.2772 30.5077 76.5935 31.2592C76.9493 32.169 77.3447 32.9206 77.7401 33.5139C78.175 34.1072 78.7285 34.6215 79.4797 35.017C80.2309 35.4126 81.2193 35.6103 82.445 35.6103C84.1451 35.6103 85.4894 35.2148 86.5569 34.4237C87.6244 33.6326 88.1384 32.6437 88.1384 31.457C88.1384 30.5077 87.8616 29.7561 87.2686 29.1628C86.715 28.5695 85.9638 28.1344 85.0545 27.8179C84.1451 27.5015 82.959 27.185 81.4566 26.829C79.4402 26.3544 77.7401 25.8006 76.3958 25.1677C75.0515 24.5348 73.9445 23.6646 73.1537 22.5571C72.363 21.4495 71.9676 20.1046 71.9676 18.4829C71.9676 16.9402 72.4025 15.5558 73.2328 14.3691C74.0631 13.1824 75.2887 12.2331 76.9098 11.6002C78.4913 10.9673 80.3891 10.6113 82.5636 10.6113C84.3033 10.6113 85.7661 10.8091 87.0313 11.2442C88.2965 11.6793 89.3245 12.2331 90.1548 12.9451C90.9851 13.6571 91.5781 14.4086 91.9735 15.1998C92.3689 15.9909 92.5666 16.7424 92.5666 17.494C92.5666 18.1664 92.3293 18.7993 91.8549 19.3135C91.3805 19.8673 90.7874 20.1442 90.0757 20.1442C89.4036 20.1442 88.9291 19.986 88.5733 19.6695C88.2175 19.3531 87.8616 18.7993 87.4662 18.0477C86.9523 16.9797 86.3592 16.1491 85.608 15.5558C84.8963 14.9624 83.7497 14.646 82.1682 14.646C80.7054 14.646 79.5192 14.9624 78.6099 15.6349C77.7005 16.2678 77.2656 17.0589 77.2656 17.9686C77.2656 18.5224 77.4238 19.0366 77.7401 19.4322C78.0564 19.8277 78.4517 20.1837 79.0052 20.5002C79.5588 20.7771 80.0728 21.0144 80.6263 21.1726C81.1798 21.3308 82.0892 21.5682 83.3544 21.8846C84.9359 22.2406 86.3592 22.6757 87.6639 23.1108C88.9687 23.5459 90.0362 24.0997 90.9455 24.7326C91.8549 25.3655 92.5666 26.1962 93.041 27.1455C93.5155 28.2135 93.7922 29.4001 93.7922 30.8241Z" fill="white"/>
<path d="M97.9441 20.6577C97.351 20.6577 96.8766 20.4599 96.4417 20.1039C96.0463 19.7479 95.8091 19.2337 95.8091 18.6008C95.8091 18.0075 96.0068 17.5328 96.4417 17.1373C96.8766 16.7417 97.351 16.5439 97.9046 16.5439C98.4581 16.5439 98.9325 16.7022 99.3674 17.0582C99.8024 17.4142 100 17.9284 100 18.5613C100 19.1942 99.8024 19.7084 99.3674 20.0644C98.9721 20.4599 98.4976 20.6577 97.9441 20.6577ZM100 25.0088V37.1523C100 37.983 99.8023 38.6159 99.407 39.051C99.0116 39.4861 98.4976 39.6839 97.9046 39.6839C97.272 39.6839 96.7975 39.4465 96.4021 39.0114C96.0068 38.5763 95.8091 37.9434 95.8091 37.1128V25.1275C95.8091 24.2968 96.0068 23.6639 96.4021 23.2684C96.7975 22.8333 97.272 22.6355 97.9046 22.6355C98.5372 22.6355 99.0116 22.8333 99.407 23.2684C99.8023 23.6639 100 24.2572 100 25.0088Z" fill="white"/>
<path fill-rule="evenodd" clip-rule="evenodd" d="M17.0109 22.3982C9.97325 20.1831 2.65883 24.1782 4.51709 28.2128C-3.11362 26.0373 -1.09722 12.5093 10.7245 13.2213C23.3764 -2.08661 38.9937 -1.88883 55.9948 5.86402C37.0959 -1.21639 13.5316 5.38936 17.0109 22.3982Z" fill="white"/>
</svg>
