<svg width="178" height="79" viewBox="0 0 178 79" fill="none" xmlns="http://www.w3.org/2000/svg">
<path d="M33.5376 63.9779C31.8517 65.2753 30.2307 66.2484 28.6745 66.8971C27.1183 67.5458 25.3676 67.8702 23.4223 67.8702C21.6716 67.8702 20.1154 67.5458 18.7538 66.8322C17.3921 66.1186 16.3546 65.2105 15.6414 63.9779C14.9281 62.8102 14.5391 61.4479 14.5391 60.0856C14.5391 58.2044 15.1226 56.5826 16.3546 55.2203C17.5218 53.858 19.2076 53.0147 21.2826 52.5606C21.7365 52.4309 22.8388 52.2363 24.5246 51.847C26.2754 51.5227 27.7667 51.1983 28.9987 50.874C30.2307 50.5496 31.5924 50.2253 33.0189 49.7712C32.954 47.9548 32.565 46.5925 31.9166 45.7492C31.2681 44.9058 29.9065 44.4517 27.8964 44.4517C26.1457 44.4517 24.8488 44.7112 23.9411 45.1653C23.0333 45.6843 22.32 46.3979 21.6716 47.3709C21.0232 48.344 20.5693 48.9927 20.3099 49.3171C20.0506 49.6414 19.467 49.7712 18.6241 49.7712C17.846 49.7712 17.1976 49.5117 16.614 48.9927C16.0304 48.4737 15.771 47.825 15.771 47.1115C15.771 45.8789 16.2249 44.7112 17.0679 43.5436C17.9108 42.3759 19.2725 41.4677 21.088 40.6892C22.9036 39.9757 25.1731 39.5864 27.8964 39.5864C30.9439 39.5864 33.3431 39.9757 35.0938 40.6892C36.8445 41.4028 38.0765 42.5705 38.7897 44.1274C39.503 45.6843 39.892 47.7602 39.892 50.2901C39.892 51.9119 39.892 53.2742 39.892 54.4419C39.892 55.5447 39.892 56.8421 39.8272 58.2044C39.8272 59.5018 40.0217 60.8641 40.4756 62.2913C40.9295 63.7184 41.124 64.6266 41.124 65.0158C41.124 65.7294 40.7998 66.3781 40.1514 66.962C39.503 67.5458 38.7249 67.8053 37.882 67.8053C37.1687 67.8053 36.4555 67.4809 35.807 66.8322C35.0938 66.2484 34.3157 65.2753 33.5376 63.9779ZM33.0837 53.9878C32.0462 54.377 30.6197 54.7662 28.6745 55.1555C26.7292 55.5447 25.4324 55.869 24.6543 56.0636C23.9411 56.2583 23.2278 56.6475 22.5146 57.2313C21.8661 57.8152 21.4771 58.5936 21.4771 59.6316C21.4771 60.6695 21.8661 61.5777 22.6442 62.2913C23.4223 63.0048 24.4598 63.3941 25.7566 63.3941C27.1183 63.3941 28.4151 63.0697 29.5174 62.4859C30.6846 61.902 31.5275 61.1236 32.0462 60.1505C32.6947 59.1126 32.954 57.3611 32.954 54.9608V53.9878H33.0837Z" fill="black"/>
<path d="M61.2236 63.978V63.0699C60.3806 64.1078 59.5377 65.016 58.6299 65.7296C57.7221 66.4431 56.7495 66.9621 55.6472 67.2865C54.5449 67.6108 53.3129 67.8054 51.9512 67.8054C50.2654 67.8054 48.774 67.4811 47.4772 66.7675C46.1804 66.0539 45.1429 65.1457 44.4296 63.9132C43.5867 62.4211 43.1328 60.3453 43.1328 57.5558V43.9329C43.1328 42.5706 43.457 41.5327 44.0406 40.8191C44.689 40.1055 45.4671 39.7812 46.5046 39.7812C47.542 39.7812 48.385 40.1055 49.0334 40.8191C49.6818 41.5327 50.006 42.5706 50.006 43.9329V55.0259C50.006 56.6476 50.1357 57.945 50.3951 59.0478C50.6544 60.1507 51.1731 60.994 51.8216 61.5778C52.5348 62.1617 53.4426 62.486 54.6746 62.486C55.8417 62.486 56.944 62.1617 57.9815 61.4481C59.019 60.7345 59.7322 59.8263 60.2509 58.7235C60.64 57.7504 60.8345 55.6097 60.8345 52.3013V43.868C60.8345 42.5058 61.1587 41.4678 61.8071 40.7542C62.4556 40.0407 63.2985 39.7163 64.336 39.7163C65.3734 39.7163 66.2164 40.0407 66.7999 40.7542C67.4483 41.4678 67.7077 42.4409 67.7077 43.868V63.9132C67.7077 65.2106 67.3835 66.2485 66.7999 66.8972C66.2164 67.5459 65.4383 67.8703 64.4656 67.8703C63.493 67.8703 62.7149 67.5459 62.1313 66.8324C61.5478 66.1837 61.2236 65.2106 61.2236 63.978Z" fill="black"/>
<path d="M73.4139 40.3651H74.192V36.2134C74.192 35.1106 74.192 34.2024 74.2569 33.6185C74.3217 32.9698 74.4514 32.4509 74.7756 31.9968C75.035 31.5427 75.424 31.1534 75.9428 30.8291C76.4615 30.5047 77.0451 30.375 77.6286 30.375C78.5364 30.375 79.3145 30.6994 80.0278 31.3481C80.4817 31.8022 80.8059 32.3211 80.9355 32.9698C81.0652 33.6185 81.1301 34.5267 81.1301 35.6944V40.43H83.6589C84.6315 40.43 85.4096 40.6895 85.9283 41.1436C86.4471 41.5977 86.7064 42.1815 86.7064 42.96C86.7064 43.8682 86.3174 44.5169 85.6041 44.9061C84.8909 45.2953 83.7886 45.4899 82.4269 45.4899H81.1301V58.2046C81.1301 59.3074 81.1949 60.0859 81.2597 60.6697C81.3246 61.2536 81.5191 61.7077 81.8433 62.0969C82.1675 62.4861 82.6863 62.6159 83.4644 62.6159C83.8534 62.6159 84.437 62.551 85.0854 62.4213C85.7987 62.2915 86.3174 62.2266 86.7064 62.2266C87.29 62.2266 87.7439 62.4212 88.1978 62.8753C88.6517 63.3294 88.8462 63.8484 88.8462 64.562C88.8462 65.6648 88.2626 66.5081 87.0306 67.092C85.7987 67.6758 84.0479 68.0001 81.7785 68.0001C79.6387 68.0001 77.9528 67.6109 76.8505 66.8973C75.7482 66.1838 75.035 65.1458 74.6459 63.9133C74.3217 62.6159 74.1272 60.9292 74.1272 58.7885V45.3602H73.2194C72.2468 45.3602 71.4687 45.1007 70.95 44.6466C70.4312 44.1925 70.1719 43.5438 70.1719 42.8302C70.1719 42.1166 70.4312 41.5328 71.0148 41.0138C71.5984 40.6246 72.3765 40.3651 73.4139 40.3651Z" fill="black"/>
<path d="M117.311 53.8576C117.311 55.9335 116.987 57.8147 116.339 59.5663C115.69 61.3178 114.783 62.8098 113.551 64.0424C112.319 65.2749 110.892 66.248 109.206 66.8967C107.52 67.5454 105.64 67.8697 103.5 67.8697C101.425 67.8697 99.545 67.5454 97.8591 66.8318C96.1732 66.1831 94.7467 65.21 93.5147 63.9126C92.2827 62.6152 91.3749 61.188 90.7265 59.4365C90.0781 57.7499 89.7539 55.8037 89.7539 53.7279C89.7539 51.652 90.0781 49.7059 90.7265 47.9544C91.3749 46.2028 92.2827 44.7108 93.5147 43.4783C94.6819 42.2457 96.1732 41.2727 97.8591 40.6239C99.545 39.9752 101.425 39.6509 103.5 39.6509C105.575 39.6509 107.52 39.9752 109.206 40.6888C110.892 41.3375 112.384 42.3106 113.616 43.608C114.848 44.8406 115.755 46.3326 116.404 48.0841C116.987 49.8356 117.311 51.7817 117.311 53.8576ZM110.373 53.8576C110.373 51.0682 109.725 48.8626 108.493 47.2408C107.261 45.6839 105.575 44.9054 103.5 44.9054C102.139 44.9054 100.971 45.2298 99.934 45.9434C98.8965 46.6569 98.1184 47.6949 97.5349 49.0572C96.9513 50.4195 96.6919 52.0412 96.6919 53.8576C96.6919 55.674 96.9513 57.2309 97.5349 58.5932C98.0536 59.9555 98.8965 60.9934 99.8692 61.707C100.907 62.4206 102.074 62.8098 103.5 62.8098C105.575 62.8098 107.261 62.0314 108.493 60.4096C109.725 58.7878 110.373 56.6471 110.373 53.8576Z" fill="black"/>
<g filter="url(#filter0_d_1596_4557)">
<path d="M160.819 52.4308C160.819 55.2202 160.106 57.7502 158.679 59.9558C157.253 62.1614 155.113 63.913 152.39 65.2104C149.601 66.4429 146.359 67.0916 142.534 67.0916C137.995 67.0916 134.234 66.2483 131.251 64.4968C129.176 63.2642 127.426 61.5776 126.129 59.5666C124.832 57.4907 124.184 55.4797 124.184 53.5336C124.184 52.4308 124.573 51.4577 125.351 50.6144C126.129 49.836 127.166 49.3819 128.333 49.3819C129.306 49.3819 130.149 49.7062 130.862 50.3549C131.576 51.0036 132.094 51.9118 132.613 53.1444C133.197 54.6364 133.845 55.869 134.493 56.842C135.207 57.8151 136.114 58.6584 137.346 59.3071C138.578 59.9558 140.199 60.2802 142.209 60.2802C144.998 60.2802 147.202 59.6315 148.953 58.3341C150.704 57.0366 151.547 55.4149 151.547 53.4687C151.547 51.9118 151.093 50.6793 150.12 49.7062C149.212 48.7332 147.98 48.0196 146.489 47.5006C144.998 46.9816 143.052 46.4627 140.588 45.8788C137.282 45.1004 134.493 44.1922 132.289 43.1542C130.084 42.1163 128.269 40.6892 126.972 38.8728C125.675 37.0564 125.027 34.8508 125.027 32.1911C125.027 29.6611 125.74 27.3906 127.101 25.4445C128.463 23.4984 130.473 21.9414 133.132 20.9035C135.725 19.8656 138.838 19.2817 142.404 19.2817C145.257 19.2817 147.656 19.6061 149.731 20.3197C151.806 21.0333 153.492 21.9414 154.854 23.1091C156.215 24.2768 157.188 25.5094 157.836 26.8068C158.485 28.1042 158.809 29.3367 158.809 30.5693C158.809 31.6721 158.42 32.71 157.642 33.5534C156.864 34.4615 155.891 34.9156 154.724 34.9156C153.622 34.9156 152.843 34.6562 152.26 34.1372C151.676 33.6182 151.093 32.71 150.444 31.4775C149.601 29.726 148.629 28.3637 147.397 27.3906C146.23 26.4175 144.349 25.8986 141.756 25.8986C139.356 25.8986 137.411 26.4175 135.92 27.5203C134.429 28.5583 133.715 29.8557 133.715 31.3477C133.715 32.2559 133.975 33.0993 134.493 33.748C135.012 34.3967 135.661 34.9805 136.568 35.4995C137.476 35.9536 138.319 36.3428 139.227 36.6023C140.135 36.8618 141.626 37.251 143.701 37.77C146.295 38.3538 148.629 39.0674 150.769 39.781C152.908 40.4945 154.659 41.4027 156.15 42.4407C157.642 43.4786 158.809 44.8409 159.587 46.3978C160.365 48.1493 160.819 50.0954 160.819 52.4308Z" fill="#FF7528"/>
</g>
<g filter="url(#filter1_d_1596_4557)">
<path d="M167.626 35.7593C166.654 35.7593 165.876 35.4349 165.162 34.8511C164.514 34.2672 164.125 33.4239 164.125 32.386C164.125 31.4129 164.449 30.6345 165.162 29.9858C165.876 29.3371 166.654 29.0127 167.562 29.0127C168.469 29.0127 169.247 29.2722 169.961 29.856C170.674 30.4399 170.998 31.2832 170.998 32.3211C170.998 33.359 170.674 34.2024 169.961 34.7862C169.312 35.4349 168.534 35.7593 167.626 35.7593ZM170.998 42.8951V62.8105C170.998 64.1728 170.674 65.2107 170.026 65.9243C169.377 66.6378 168.534 66.9622 167.562 66.9622C166.524 66.9622 165.746 66.573 165.098 65.8594C164.449 65.1458 164.125 64.1079 164.125 62.7456V43.0897C164.125 41.7274 164.449 40.6895 165.098 40.0408C165.746 39.3272 166.524 39.0028 167.562 39.0028C168.599 39.0028 169.377 39.3272 170.026 40.0408C170.674 40.6895 170.998 41.6625 170.998 42.8951Z" fill="#FF7528"/>
</g>
<g filter="url(#filter2_d_1596_4557)">
<path fill-rule="evenodd" clip-rule="evenodd" d="M34.8979 38.6136C23.3562 34.9808 11.3605 41.5328 14.408 48.1496C1.89365 44.5817 5.20056 22.3958 24.5881 23.5635C45.3374 -1.54154 70.9497 -1.21719 98.8315 11.4975C67.8374 -0.114381 29.1919 10.7191 34.8979 38.6136Z" fill="#FF7528"/>
</g>
<defs>
<filter id="filter0_d_1596_4557" x="117.184" y="16.2817" width="50.6367" height="61.8101" filterUnits="userSpaceOnUse" color-interpolation-filters="sRGB">
<feFlood flood-opacity="0" result="BackgroundImageFix"/>
<feColorMatrix in="SourceAlpha" type="matrix" values="0 0 0 0 0 0 0 0 0 0 0 0 0 0 0 0 0 0 127 0" result="hardAlpha"/>
<feOffset dy="4"/>
<feGaussianBlur stdDeviation="3.5"/>
<feComposite in2="hardAlpha" operator="out"/>
<feColorMatrix type="matrix" values="0 0 0 0 0.992157 0 0 0 0 0.439216 0 0 0 0 0.133333 0 0 0 0.25 0"/>
<feBlend mode="normal" in2="BackgroundImageFix" result="effect1_dropShadow_1596_4557"/>
<feBlend mode="normal" in="SourceGraphic" in2="effect1_dropShadow_1596_4557" result="shape"/>
</filter>
<filter id="filter1_d_1596_4557" x="157.125" y="26.0127" width="20.875" height="51.9497" filterUnits="userSpaceOnUse" color-interpolation-filters="sRGB">
<feFlood flood-opacity="0" result="BackgroundImageFix"/>
<feColorMatrix in="SourceAlpha" type="matrix" values="0 0 0 0 0 0 0 0 0 0 0 0 0 0 0 0 0 0 127 0" result="hardAlpha"/>
<feOffset dy="4"/>
<feGaussianBlur stdDeviation="3.5"/>
<feComposite in2="hardAlpha" operator="out"/>
<feColorMatrix type="matrix" values="0 0 0 0 0.992157 0 0 0 0 0.439216 0 0 0 0 0.133333 0 0 0 0.25 0"/>
<feBlend mode="normal" in2="BackgroundImageFix" result="effect1_dropShadow_1596_4557"/>
<feBlend mode="normal" in="SourceGraphic" in2="effect1_dropShadow_1596_4557" result="shape"/>
</filter>
<filter id="filter2_d_1596_4557" x="0" y="0" width="105.832" height="59.1494" filterUnits="userSpaceOnUse" color-interpolation-filters="sRGB">
<feFlood flood-opacity="0" result="BackgroundImageFix"/>
<feColorMatrix in="SourceAlpha" type="matrix" values="0 0 0 0 0 0 0 0 0 0 0 0 0 0 0 0 0 0 127 0" result="hardAlpha"/>
<feOffset dy="4"/>
<feGaussianBlur stdDeviation="3.5"/>
<feComposite in2="hardAlpha" operator="out"/>
<feColorMatrix type="matrix" values="0 0 0 0 0.992157 0 0 0 0 0.439216 0 0 0 0 0.133333 0 0 0 0.25 0"/>
<feBlend mode="normal" in2="BackgroundImageFix" result="effect1_dropShadow_1596_4557"/>
<feBlend mode="normal" in="SourceGraphic" in2="effect1_dropShadow_1596_4557" result="shape"/>
</filter>
</defs>
</svg>
