<svg width="24" height="25" viewBox="0 0 24 25" fill="none" xmlns="http://www.w3.org/2000/svg">
<path d="M14 5.5C14 6.604 13.104 7.5 12 7.5C10.896 7.5 10 6.604 10 5.5C10 4.396 10.896 3.5 12 3.5C13.104 3.5 14 4.396 14 5.5Z" fill="#9F9F9F"/>
<path d="M12 10.5C10.896 10.5 10 11.396 10 12.5C10 13.604 10.896 14.5 12 14.5C13.104 14.5 14 13.604 14 12.5C14 11.396 13.104 10.5 12 10.5Z" fill="#9F9F9F"/>
<path d="M12 17.5C10.896 17.5 10 18.396 10 19.5C10 20.604 10.896 21.5 12 21.5C13.104 21.5 14 20.604 14 19.5C14 18.396 13.104 17.5 12 17.5Z" fill="#9F9F9F"/>
</svg>
