<svg width="24" height="24" viewBox="0 0 24 24" fill="none" xmlns="http://www.w3.org/2000/svg">
<path d="M15.7578 14.2549H14.9678L14.6878 13.9849C15.6678 12.8449 16.2578 11.3649 16.2578 9.75488C16.2578 6.16488 13.3478 3.25488 9.75781 3.25488C6.16781 3.25488 3.25781 6.16488 3.25781 9.75488C3.25781 13.3449 6.16781 16.2549 9.75781 16.2549C11.3678 16.2549 12.8478 15.6649 13.9878 14.6849L14.2578 14.9649V15.7549L19.2578 20.7449L20.7478 19.2549L15.7578 14.2549ZM9.75781 14.2549C7.26781 14.2549 5.25781 12.2449 5.25781 9.75488C5.25781 7.26488 7.26781 5.25488 9.75781 5.25488C12.2478 5.25488 14.2578 7.26488 14.2578 9.75488C14.2578 12.2449 12.2478 14.2549 9.75781 14.2549Z" fill="#606060"/>
</svg>
