<svg width="20" height="14" viewBox="0 0 20 14" fill="none" xmlns="http://www.w3.org/2000/svg">
<g opacity="0.2">
<mask id="mask0_1208_1087" style="mask-type:alpha" maskUnits="userSpaceOnUse" x="0" y="0" width="20" height="14">
<path fill-rule="evenodd" clip-rule="evenodd" d="M9.99956 0C15.7047 0 19.6324 6.055 19.7961 6.31313C20.0663 6.73366 20.0681 7.26469 19.8006 7.68687C19.6369 7.945 15.7093 14 10.0223 14H9.99501C4.29441 13.9825 0.366718 7.94937 0.203064 7.69125C-0.067688 7.26883 -0.067688 6.73555 0.203064 6.31313C0.366718 6.055 4.29441 0 9.99956 0ZM10.0223 1.31252C3.47795 1.31252 3.47795 12.6875 10.0223 12.6875C16.5636 12.6875 16.5636 1.31252 10.0223 1.31252ZM6.36281 7.00002C6.36281 5.06703 7.99105 3.50003 9.99957 3.50003C12.0081 3.50003 13.6363 5.06703 13.6363 7.00002C13.6363 8.933 12.0081 10.5 9.99957 10.5C7.99105 10.5 6.36281 8.933 6.36281 7.00002ZM7.7266 7C7.7266 8.20813 8.74425 9.18751 9.99958 9.18751C11.2549 9.18751 12.2726 8.20813 12.2726 7C12.2726 5.79188 11.2549 4.8125 9.99958 4.8125C8.74425 4.8125 7.7266 5.79188 7.7266 7Z" fill="white"/>
</mask>
<g mask="url(#mask0_1208_1087)">
<rect x="-0.328613" y="-3.0625" width="20.4567" height="19.25" fill="black"/>
</g>
</g>
</svg>
